<svg width="20" height="20" viewBox="0 0 20 20" fill="none" xmlns="http://www.w3.org/2000/svg">
<g clip-path="url(#clip0_2016_2228)">
<path d="M9.29413 8.08582C9.27037 7.74802 9.21155 7.46486 9.21155 7.10254C9.21155 6.90633 9.22739 6.26976 9.31789 6.15271C9.68327 6.63208 9.84843 7.46151 10 7.97656C10.0487 7.83052 10.0758 7.6332 10.1177 7.47489C10.2036 7.15382 10.5204 6.30655 10.6878 6.15271C10.767 6.29986 10.7862 6.92417 10.7862 7.12707C10.7862 7.4827 10.7217 7.78035 10.698 8.10254C10.7873 7.9643 10.8846 7.8138 10.9774 7.68336C11.1821 7.39351 11.7263 6.74245 11.9887 6.61202C11.9265 7.34223 11.5419 7.93197 11.3179 8.45148C11.5091 8.35338 12.1754 7.72238 13.0475 7.48158C12.7444 8.17946 11.8563 8.88961 11.7851 8.98994C11.9287 8.96096 12.0815 8.8963 12.2387 8.85282C12.6041 8.75025 13.4095 8.6109 13.7376 8.66553L13.3665 8.95873C12.802 9.36564 12.5453 9.40466 12.0158 9.64992C12.155 9.67779 12.6516 9.67556 13.0826 9.75471C13.2907 9.79262 13.8179 9.9119 13.9672 10.0033C13.8507 10.1048 13.2783 10.2218 13.0679 10.2608C12.6833 10.3311 12.3812 10.311 12.0136 10.3567C12.3428 10.4894 12.6369 10.6154 12.9355 10.7826C13.138 10.8963 13.6527 11.2196 13.7342 11.3556C12.6301 11.3545 12.552 11.1783 11.7975 11.0267L12.1606 11.3746C12.4706 11.6744 12.8507 12.1371 13.0487 12.5262C12.6244 12.4537 11.8711 11.9688 11.4921 11.6889C11.4333 11.6455 11.3778 11.5897 11.3168 11.5574C11.3643 11.6811 11.4638 11.835 11.5283 11.9699C11.733 12.3969 11.9276 12.9197 11.9876 13.3969C11.7579 13.282 11.4344 12.9086 11.2613 12.7012C11.164 12.5841 11.0554 12.4526 10.9604 12.3099C10.8959 12.2129 10.7455 12.0033 10.6968 11.9041C10.6991 12.0379 10.741 12.2185 10.7557 12.3634C10.7885 12.699 10.802 13.6354 10.6844 13.855C10.5656 13.748 10.3439 13.2073 10.2715 13.0156C10.181 12.7759 10.0192 12.1059 9.98078 12.0557C9.90499 12.6131 9.59051 13.4537 9.31336 13.855L9.2749 13.7536C9.1154 12.952 9.28961 12.0613 9.27264 11.971L9.25793 11.9331C9.09843 12.3355 8.37671 13.146 8.00228 13.408C8.02829 12.8796 8.4525 11.932 8.67648 11.5596C8.54866 11.6321 8.43553 11.7436 8.28961 11.845C7.94571 12.0847 7.34164 12.4281 6.94345 12.5306C7.30884 11.7503 8.11314 11.1505 8.21042 11.0178C7.6663 11.1538 6.91517 11.4236 6.25341 11.3478C6.4378 11.1572 6.77942 10.9442 7.043 10.7882C7.41291 10.5697 7.76472 10.4671 7.96495 10.3534C7.56449 10.3311 6.31223 10.2419 6.0249 10.0022C6.47173 9.74579 7.47852 9.69563 7.96947 9.65661C7.93893 9.63654 7.34051 9.38905 7.03961 9.22071C6.80431 9.08916 6.39707 8.82383 6.25454 8.66107C6.56336 8.63766 7.01698 8.69563 7.31336 8.75248C7.66404 8.81937 8.08485 8.96876 8.20816 8.98994C8.08033 8.86062 7.96381 8.77589 7.83825 8.65438C7.60522 8.42807 7.03169 7.75025 6.94798 7.48047C7.93214 7.80154 8.5068 8.36787 8.66065 8.4381C8.61766 8.31882 8.51019 8.1371 8.44458 8.00889C8.29526 7.71346 7.98983 6.86285 8.0068 6.6031L8.36992 6.92751C8.92422 7.45371 9.17083 7.96207 9.29413 8.08582ZM13.0781 5.88292C13.0724 5.88515 13.0679 5.88849 13.0622 5.89072C13.0679 5.88849 13.0724 5.88626 13.0781 5.88292ZM13.06 5.89184C13.0554 5.89407 13.0509 5.8963 13.0453 5.89964C13.0509 5.89741 13.0554 5.89407 13.06 5.89184ZM13.026 5.90967C13.0057 5.92082 12.9842 5.93086 12.9638 5.942C12.9842 5.93086 13.0045 5.92082 13.026 5.90967ZM12.8563 6.00109C12.8518 6.00332 12.8473 6.00555 12.8428 6.00889C12.8473 6.00666 12.8518 6.00443 12.8563 6.00109ZM12.8405 6.01112C12.836 6.01335 12.8326 6.01558 12.8281 6.01781C12.8315 6.01558 12.836 6.01335 12.8405 6.01112ZM12.7545 6.06129C12.7511 6.06352 12.7466 6.06575 12.7432 6.06798C12.7466 6.06575 12.75 6.06352 12.7545 6.06129ZM12.5735 6.175C12.5701 6.17723 12.5656 6.17946 12.5622 6.18281C12.5656 6.17946 12.569 6.17723 12.5735 6.175ZM12.026 6.48047C12.0272 6.46932 12.0272 6.45817 12.0283 6.44702C12.0272 6.45817 12.026 6.46932 12.026 6.48047ZM12.0328 6.34223C12.0339 6.33108 12.034 6.31882 12.0351 6.30767C12.0351 6.31882 12.0339 6.32996 12.0328 6.34223ZM12.0362 6.29763C12.0373 6.2876 12.0373 6.27757 12.0385 6.26753C12.0373 6.27757 12.0362 6.2876 12.0362 6.29763ZM12.0385 6.2575C12.0396 6.24635 12.0396 6.2352 12.0407 6.22517C12.0396 6.23632 12.0396 6.24635 12.0385 6.2575ZM12.0487 6.11257C12.0747 5.74579 12.0939 5.65103 12.0815 5.40354C12.0928 5.65103 12.0747 5.74579 12.0487 6.11257ZM13.3869 6.82495C13.3937 6.80823 13.4016 6.7915 13.4084 6.77366C13.4005 6.7915 13.3937 6.80823 13.3869 6.82495ZM13.4106 6.76809C13.4152 6.75806 13.4186 6.74802 13.4231 6.73911C13.4186 6.74802 13.414 6.75806 13.4106 6.76809ZM13.4468 6.6789C13.4514 6.66776 13.4559 6.65549 13.4604 6.64435C13.4559 6.65549 13.4514 6.66664 13.4468 6.6789ZM13.4627 6.63877C13.4672 6.62762 13.4706 6.61759 13.4751 6.60644C13.4717 6.61759 13.4672 6.62762 13.4627 6.63877ZM13.5 6.5429C13.5045 6.53175 13.5079 6.52171 13.5125 6.51057C13.5079 6.52171 13.5034 6.53175 13.5 6.5429ZM14.4638 8.69786C14.4582 8.69674 14.4514 8.69674 14.4457 8.69563C14.4514 8.69563 14.457 8.69674 14.4638 8.69786ZM14.414 8.69117C14.4084 8.69005 14.4016 8.69005 14.3959 8.68894L14.414 8.69117ZM13.7998 8.64992C13.7998 8.64992 13.8009 8.6488 13.8009 8.64769C13.8009 8.6488 13.8009 8.64992 13.7998 8.64992ZM13.8054 8.64435C13.8066 8.64323 13.8077 8.64212 13.8088 8.63989C13.8077 8.641 13.8066 8.64323 13.8054 8.64435ZM13.8224 8.62539C13.9061 8.53955 14.2104 8.24858 14.5011 7.91859C14.2104 8.24858 13.9073 8.54067 13.8224 8.62539ZM14.914 10.4236C14.7387 10.3255 14.4039 10.1728 14.2048 10.0758C14.4027 10.1728 14.7387 10.3266 14.914 10.4236ZM14.1878 10.068C14.1844 10.0657 14.181 10.0646 14.1776 10.0624C14.181 10.0635 14.1844 10.0657 14.1878 10.068ZM14.1754 10.0613C14.172 10.0591 14.1686 10.0579 14.1652 10.0557C14.1686 10.0579 14.172 10.0602 14.1754 10.0613ZM14.0894 10.0167C14.0882 10.0156 14.086 10.0156 14.0849 10.0145C14.0871 10.0145 14.0882 10.0156 14.0894 10.0167ZM14.0747 10.0078C14.0735 10.0067 14.0724 10.0067 14.0713 10.0055C14.0724 10.0067 14.0735 10.0078 14.0747 10.0078ZM14.0679 10.0044C14.0668 10.0033 14.0656 10.0033 14.0645 10.0022C14.0668 10.0033 14.0679 10.0033 14.0679 10.0044ZM14.0577 9.99775C14.0566 9.99663 14.0554 9.99663 14.0554 9.99552C14.0566 9.99663 14.0566 9.99663 14.0577 9.99775ZM14.0543 9.9944C14.0532 9.99329 14.0532 9.99329 14.052 9.99217C14.052 9.99329 14.0532 9.9944 14.0543 9.9944ZM14.2568 12.8339C14.0747 13.1783 13.8597 13.4983 13.6154 13.7893L14.2568 12.8339ZM13.6007 13.7424C13.5996 13.738 13.5973 13.7335 13.5962 13.728C13.5984 13.7335 13.5996 13.738 13.6007 13.7424ZM13.5396 13.5685C13.5373 13.5641 13.5362 13.5585 13.5339 13.554C13.5362 13.5596 13.5385 13.5641 13.5396 13.5685ZM13.5 13.4671C13.4966 13.4593 13.4932 13.4504 13.4898 13.4426C13.4944 13.4504 13.4978 13.4593 13.5 13.4671ZM13.4548 13.3578C13.4525 13.3534 13.4502 13.3478 13.448 13.3433C13.4514 13.3478 13.4525 13.3523 13.4548 13.3578ZM13.4231 13.282C13.4186 13.272 13.414 13.2608 13.4095 13.2508C13.4129 13.262 13.4174 13.272 13.4231 13.282ZM13.3982 13.2285C13.3903 13.2118 13.3835 13.1951 13.3756 13.1795C13.3835 13.1951 13.3914 13.2118 13.3982 13.2285ZM13.3744 13.1739C13.3722 13.1683 13.3699 13.1627 13.3665 13.1572C13.3688 13.1627 13.3711 13.1683 13.3744 13.1739ZM13.3145 13.0468C13.276 12.9643 13.2364 12.8796 13.1957 12.7926C13.2364 12.8796 13.276 12.9632 13.3145 13.0468ZM13.1821 12.7625C13.1787 12.7536 13.1742 12.7458 13.1708 12.7369L13.1821 12.7625ZM13.1674 12.7313C13.164 12.7235 13.1606 12.7168 13.1573 12.709C13.1606 12.7157 13.164 12.7235 13.1674 12.7313ZM13.1414 12.6744C13.138 12.6666 13.1346 12.6588 13.1312 12.651C13.1346 12.66 13.138 12.6678 13.1414 12.6744ZM13.129 12.6466C13.1256 12.6377 13.1211 12.6299 13.1177 12.6209C13.1211 12.6299 13.1244 12.6377 13.129 12.6466ZM13.0905 12.5607C13.0996 12.563 13.1086 12.5641 13.1177 12.5663C13.1086 12.5641 13.0996 12.5618 13.0905 12.5607ZM13.1527 12.573C13.1606 12.5752 13.1686 12.5763 13.1776 12.5786C13.1697 12.5763 13.1606 12.5752 13.1527 12.573ZM12.0769 14.874C12.0781 14.8662 12.0781 14.8573 12.0792 14.8495C12.0781 14.8573 12.0769 14.8651 12.0769 14.874ZM12.0792 14.8439C12.0815 14.8071 12.0837 14.7703 12.086 14.7358C12.0837 14.7714 12.0815 14.8071 12.0792 14.8439ZM12.0882 14.5005C12.0837 14.2909 12.0611 14.117 12.0441 13.9208C12.0611 14.1159 12.0837 14.2909 12.0882 14.5005ZM12.0441 13.9208C12.043 13.913 12.043 13.9041 12.0419 13.8963C12.0419 13.9041 12.043 13.913 12.0441 13.9208ZM12.0373 13.8406C12.0362 13.8227 12.0351 13.8049 12.034 13.787C12.034 13.806 12.0362 13.8238 12.0373 13.8406ZM12.0328 13.7826C12.0328 13.7759 12.0317 13.7692 12.0317 13.7625C12.0317 13.7681 12.0328 13.7759 12.0328 13.7826ZM12.0306 13.7536C12.0306 13.7469 12.0294 13.7413 12.0294 13.7346C12.0306 13.7413 12.0306 13.7469 12.0306 13.7536ZM12.026 13.67C12.026 13.6611 12.0249 13.651 12.0249 13.6421L12.026 13.67ZM12.0226 13.544C12.0226 13.5373 12.0226 13.5306 12.0226 13.5251V13.544ZM12.0226 13.4816C12.0226 13.4715 12.0226 13.4604 12.0226 13.4504C12.0215 13.4615 12.0215 13.4715 12.0226 13.4816ZM10.1369 15.5362C10.138 15.5329 10.1403 15.5306 10.1414 15.5273C10.1403 15.5295 10.138 15.5329 10.1369 15.5362ZM10.1425 15.5239C10.1471 15.5139 10.1527 15.5039 10.1573 15.495C10.1527 15.505 10.1471 15.5139 10.1425 15.5239ZM10.1573 15.4938C10.1674 15.4727 10.1776 15.4515 10.1878 15.4292C10.1776 15.4515 10.1674 15.4738 10.1573 15.4938ZM10.2048 15.3946C10.2398 15.3199 10.2738 15.2408 10.3043 15.1683C10.2738 15.2408 10.2387 15.3188 10.2048 15.3946ZM8.35409 15.1103C8.4016 15.0624 8.45024 15.0122 8.49888 14.9598C8.45024 15.0122 8.40273 15.0624 8.35409 15.1103ZM8.49888 14.9598C8.52942 14.9275 8.55997 14.8941 8.58938 14.8606C8.55997 14.8941 8.52942 14.9264 8.49888 14.9598ZM8.73078 14.6979L8.73983 14.6867C8.73757 14.6901 8.73418 14.6934 8.73078 14.6979ZM9.81676 15.4359C9.82128 15.4459 9.82581 15.4548 9.83033 15.4637C9.82581 15.4548 9.82128 15.4448 9.81676 15.4359ZM9.83146 15.4671C9.83599 15.476 9.84051 15.486 9.84504 15.495C9.84051 15.486 9.83599 15.4771 9.83146 15.4671ZM6.75567 14.2151L6.78961 14.1984C6.77943 14.204 6.76811 14.2096 6.75567 14.2151ZM7.07241 14.0468C7.08938 14.0368 7.10522 14.0278 7.12218 14.0178C7.10522 14.0278 7.08825 14.0379 7.07241 14.0468ZM7.19798 13.9721C7.21381 13.9621 7.23078 13.952 7.24662 13.942C7.22965 13.9532 7.21381 13.9632 7.19798 13.9721ZM7.37219 13.8629C7.37671 13.8595 7.38237 13.8562 7.38689 13.8528C7.38237 13.8562 7.37784 13.8595 7.37219 13.8629ZM7.38802 13.8517C7.3982 13.845 7.40838 13.8383 7.41857 13.8316C7.40838 13.8394 7.3982 13.845 7.38802 13.8517ZM7.51133 13.7703C7.51924 13.7647 7.52716 13.7592 7.53508 13.7536C7.52716 13.7603 7.51924 13.7659 7.51133 13.7703ZM7.97739 13.5173C7.97626 13.5284 7.97626 13.5396 7.97513 13.5507L7.97739 13.5173ZM7.96155 13.7324C7.96042 13.7458 7.95929 13.7581 7.95816 13.7703L7.96155 13.7324ZM7.95816 13.7714C7.95703 13.7837 7.9559 13.796 7.95476 13.8082L7.95816 13.7714ZM7.9197 14.2709C7.9197 14.2765 7.91857 14.2809 7.91857 14.2865C7.9197 14.2809 7.9197 14.2753 7.9197 14.2709ZM7.91857 14.2898C7.91857 14.2943 7.91857 14.2999 7.91743 14.3043C7.91857 14.2999 7.91857 14.2954 7.91857 14.2898ZM7.91743 14.3088C7.91743 14.3132 7.91743 14.3188 7.9163 14.3233C7.91743 14.3188 7.91743 14.3144 7.91743 14.3088ZM7.91743 14.3266C7.9163 14.3489 7.9163 14.3712 7.91517 14.3924C7.91517 14.3701 7.9163 14.3489 7.91743 14.3266ZM7.91404 14.4136V14.427C7.91404 14.4225 7.91404 14.418 7.91404 14.4136ZM7.91404 14.4325V14.4448C7.91404 14.4414 7.91404 14.437 7.91404 14.4325ZM7.91404 14.4515V14.4649C7.91404 14.4604 7.91404 14.4559 7.91404 14.4515ZM7.91517 14.5184V14.5329C7.91517 14.5284 7.91517 14.5239 7.91517 14.5184ZM7.91517 14.5384V14.5518C7.9163 14.5474 7.91517 14.5429 7.91517 14.5384ZM7.91743 14.5786V14.5919C7.91743 14.5875 7.91743 14.583 7.91743 14.5786ZM7.91743 14.5998C7.91743 14.6042 7.91743 14.6087 7.91857 14.6131C7.91857 14.6087 7.91857 14.6042 7.91743 14.5998ZM7.91857 14.6198C7.91857 14.6243 7.91857 14.6299 7.9197 14.6343C7.9197 14.6299 7.91857 14.6243 7.91857 14.6198ZM7.9197 14.6377C7.92083 14.6555 7.92196 14.6744 7.92309 14.6934C7.92196 14.6733 7.92083 14.6555 7.9197 14.6377ZM7.92422 14.7012C7.92422 14.7068 7.92535 14.7112 7.92535 14.7168C7.92422 14.7112 7.92422 14.7057 7.92422 14.7012ZM7.93101 14.8015C7.93101 14.8071 7.93214 14.8127 7.93214 14.8183C7.93214 14.8138 7.93214 14.8082 7.93101 14.8015ZM7.93327 14.8249C7.93553 14.8472 7.93666 14.8695 7.93893 14.893C7.93666 14.8695 7.93553 14.8461 7.93327 14.8249ZM7.9525 15.0301L7.9559 15.0602C7.95363 15.049 7.9525 15.039 7.9525 15.0301ZM6.38123 13.8183C6.12784 13.5206 5.90499 13.1917 5.71834 12.8383L6.38123 13.8183ZM5.7749 12.8283L5.8292 12.8183C5.8111 12.8216 5.793 12.8249 5.7749 12.8283ZM5.88576 12.8082C6.16517 12.7547 6.42761 12.68 6.71721 12.6064C6.42761 12.68 6.16517 12.7536 5.88576 12.8082ZM6.72173 12.6053C6.73983 12.6009 6.75906 12.5964 6.77829 12.5908C6.75906 12.5953 6.74096 12.6009 6.72173 12.6053ZM6.87784 12.5663C6.88689 12.5641 6.89707 12.5618 6.90612 12.5596C6.89707 12.5618 6.88802 12.5641 6.87784 12.5663ZM6.49209 13.4972C6.48983 13.505 6.48644 13.5128 6.48418 13.5206C6.48644 13.5128 6.4887 13.505 6.49209 13.4972ZM6.44458 13.6276C6.44232 13.6354 6.43893 13.6432 6.43666 13.651C6.43893 13.6443 6.44232 13.6365 6.44458 13.6276ZM5.21495 11.2564C5.22626 11.2575 5.23644 11.2597 5.24775 11.2608C5.23757 11.2597 5.22626 11.2586 5.21495 11.2564ZM5.32354 11.272C5.33372 11.2731 5.3439 11.2753 5.35409 11.2765C5.3439 11.2753 5.33372 11.2742 5.32354 11.272ZM5.43101 11.2865C5.44119 11.2876 5.45137 11.2887 5.46155 11.2898C5.45137 11.2898 5.44119 11.2876 5.43101 11.2865ZM5.69798 11.3177C5.7059 11.3188 5.71381 11.3188 5.72173 11.3199C5.71381 11.3199 5.7059 11.3188 5.69798 11.3177ZM5.41178 10.2564L5.3982 10.2631C5.40273 10.2608 5.40725 10.2586 5.41178 10.2564ZM5.28621 10.3222L5.27377 10.3288C5.27829 10.3266 5.28282 10.3244 5.28621 10.3222ZM5.112 10.4169C5.10522 10.4203 5.09956 10.4236 5.09277 10.4281L5.112 10.4169ZM6.18101 8.6187C6.18327 8.62093 6.18553 8.62428 6.1878 8.62651C6.18553 8.62316 6.18327 8.62093 6.18101 8.6187ZM6.20024 8.64212C6.20137 8.64435 6.20363 8.64546 6.20476 8.64769C6.20363 8.64546 6.2025 8.64323 6.20024 8.64212ZM6.07467 8.65549C6.06562 8.65661 6.05544 8.65661 6.04639 8.65772L6.07467 8.65549ZM5.612 8.69563C5.60635 8.69674 5.59956 8.69674 5.5939 8.69786C5.59956 8.69674 5.60522 8.69563 5.612 8.69563ZM5.57807 8.69897C5.57241 8.70009 5.56789 8.70009 5.56223 8.7012C5.56789 8.70009 5.57354 8.70009 5.57807 8.69897ZM5.55092 8.70232C5.54413 8.70343 5.53734 8.70343 5.53056 8.70455C5.53734 8.70455 5.54413 8.70343 5.55092 8.70232ZM5.35974 8.72684C5.33372 8.73019 5.30884 8.73465 5.28395 8.73799C5.30884 8.73465 5.33372 8.7313 5.35974 8.72684ZM7.93327 5.23966C7.93214 5.25862 7.93101 5.27757 7.93101 5.29652C7.93101 5.27868 7.93214 5.25973 7.93327 5.23966ZM7.92988 5.30209C7.92988 5.30767 7.92988 5.31436 7.92875 5.31993C7.92988 5.31436 7.92988 5.30878 7.92988 5.30209ZM7.92988 5.32216C7.92875 5.34223 7.92875 5.36118 7.92761 5.38013C7.92761 5.36118 7.92875 5.34223 7.92988 5.32216ZM7.92535 5.44479V5.46263C7.92535 5.45705 7.92535 5.45037 7.92535 5.44479ZM7.92535 5.46597V5.50165C7.92535 5.48938 7.92535 5.47824 7.92535 5.46597ZM7.92422 5.50388V5.52171C7.92422 5.51614 7.92422 5.51057 7.92422 5.50388ZM7.92422 5.52729V5.58192C7.92422 5.56296 7.92422 5.54513 7.92422 5.52729ZM7.92422 5.60756V5.64212C7.92422 5.63097 7.92422 5.6187 7.92422 5.60756ZM7.92535 5.64657V5.6633C7.92535 5.65772 7.92535 5.65215 7.92535 5.64657ZM7.92648 5.75137C7.92648 5.7614 7.92761 5.77255 7.92761 5.78258C7.92761 5.77255 7.92762 5.7614 7.92648 5.75137ZM7.93101 5.874C7.93101 5.87846 7.93101 5.88403 7.93214 5.88849C7.93214 5.88403 7.93101 5.87846 7.93101 5.874ZM7.93214 5.90076C7.93214 5.90856 7.93327 5.91525 7.93327 5.92305C7.93327 5.91636 7.93327 5.90856 7.93214 5.90076ZM7.9344 5.93532C7.9344 5.93977 7.9344 5.94535 7.93553 5.94981C7.9344 5.94423 7.9344 5.93977 7.9344 5.93532ZM7.94119 6.05237L7.94232 6.06909C7.94119 6.06352 7.94119 6.05795 7.94119 6.05237ZM8.75906 5.34892L8.74888 5.33665C8.75228 5.34111 8.75567 5.34446 8.75906 5.34892ZM8.66857 5.24412C8.66404 5.23966 8.65952 5.23409 8.65612 5.22963C8.66065 5.23409 8.66517 5.23855 8.66857 5.24412ZM8.62897 5.19841L8.61992 5.18838C8.62332 5.19061 8.62558 5.19395 8.62897 5.19841ZM8.46042 5.01112C8.45476 5.00555 8.44911 4.99886 8.44345 4.99329C8.44911 4.99886 8.45476 5.00443 8.46042 5.01112Z" fill="#FEFEFE"/>
<path d="M4.93655 12.8919C5.06211 12.6277 5.33926 12.2877 5.5146 12.0736C5.61981 11.9443 5.73293 11.8206 5.84039 11.7068C5.9241 11.6188 6.16166 11.4393 6.20012 11.3612C5.6956 11.3278 4.69333 11.2297 4.25668 11.009C4.28157 10.9577 4.24876 11.0056 4.28836 10.9655C4.54967 10.6968 5.59944 10.1271 5.9637 10.0123L5.05193 9.56191C4.89243 9.47384 4.30419 9.11375 4.26008 8.99335C4.86076 8.77261 5.518 8.68454 6.20465 8.64664C6.11641 8.52066 5.33021 7.88633 4.93994 7.12601C5.19899 7.09591 5.72275 7.17284 5.98519 7.21743C6.32682 7.2754 6.60171 7.37797 6.90487 7.44374C6.86528 7.32557 6.75555 7.15277 6.70012 7.02791C6.51913 6.621 6.29854 6.03125 6.24198 5.58978C6.50103 5.66225 6.94673 5.88521 7.1594 6.01119L7.98406 6.54853C7.90714 5.7938 7.89922 5.33895 7.99311 4.5909C8.19447 4.67117 8.83361 5.41587 9.00895 5.66113C9.07569 5.75366 9.22614 6.00115 9.29401 6.06916L9.58926 5.10595C9.72953 4.72914 9.90827 4.44151 9.98406 4.2453C10.0768 4.31442 10.1696 4.54296 10.216 4.64441C10.2872 4.79714 10.3449 4.94095 10.4083 5.09368C10.544 5.42144 10.604 5.72691 10.7001 6.08588C10.8777 5.86292 10.9976 5.62992 11.2895 5.28209C11.4173 5.13047 11.854 4.6589 12.0101 4.59201C12.1334 5.83616 12.078 5.40807 12.0214 6.5385C12.0972 6.5084 12.0621 6.52624 12.13 6.4783C12.5508 6.17953 12.7918 6.00784 13.2884 5.77819C13.4377 5.70907 13.6232 5.64552 13.7567 5.57418C13.9332 5.02234 13.9286 3.95768 13.9117 3.33337C13.5893 3.43928 12.7386 3.99558 12.4388 4.22858C12.3562 4.29212 12.0655 4.54965 11.9988 4.54965C11.7058 3.37797 11.8291 3.62992 11.3687 2.4259C11.061 2.57083 9.99763 4.20628 9.99424 4.20851C9.92976 4.1327 9.59492 3.55968 9.37772 3.28098C9.24763 3.11375 8.7861 2.50952 8.64469 2.43036C8.39809 2.72579 8.087 4.14051 7.99876 4.56414C7.92071 4.52735 7.85284 4.45712 7.78949 4.40472C7.70917 4.33895 7.64582 4.28989 7.56438 4.23304C7.29741 4.04798 6.31664 3.35901 6.08813 3.34564C6.07456 3.74586 6.07343 4.09703 6.09605 4.49502C6.11754 4.88075 6.1956 5.21297 6.23067 5.57306C5.93655 5.49837 5.64922 5.36682 5.20012 5.26202C4.83248 5.17618 4.40714 5.08254 4.018 5.05021C4.08248 5.37016 4.28949 5.84285 4.41732 6.1327C4.49311 6.3055 4.57456 6.4783 4.6594 6.63103C4.71143 6.72579 4.89809 7.04352 4.91166 7.1171C4.43994 7.1327 3.05193 7.18621 2.67071 7.37016C2.70352 7.45154 2.9422 7.7414 3.01121 7.81386C3.33813 8.16169 3.62886 8.50171 3.99763 8.80606C4.07569 8.86961 4.1413 8.9142 4.21483 8.99112C4.15827 9.03794 3.77931 9.17061 3.68202 9.20963C3.18429 9.41141 2.61867 9.71576 2.18994 9.99224C2.32795 10.1617 3.34266 10.6522 3.6594 10.7838C3.81777 10.8495 4.07343 10.9175 4.2137 11.0056C4.2103 11.0112 4.20352 11.0123 4.20238 11.0201L3.79741 11.3869C3.64243 11.5162 3.52931 11.6299 3.3913 11.7726C3.23745 11.932 2.75781 12.4493 2.66505 12.6277C2.97048 12.8228 4.51686 12.8763 4.93655 12.8919Z" fill="#85BC20"/>
<path d="M13.7577 5.57749C13.7136 6.12041 13.3177 7.03234 13.0937 7.43925C13.1978 7.43256 13.4127 7.3523 13.5326 7.32331C13.6887 7.28429 13.8414 7.24973 14.0032 7.22075C14.346 7.15832 14.6989 7.1271 15.062 7.12041C14.8426 7.67225 13.8188 8.61763 13.8007 8.65107C14.4365 8.65442 15.1944 8.79823 15.7453 8.99444C15.7193 9.08028 15.7589 9.01339 15.6831 9.07359C15.2419 9.42253 14.5779 9.80157 14.0484 9.99109C14.0948 10.0379 14.7294 10.3144 14.9512 10.4471C15.053 10.5073 15.6797 10.8896 15.7464 11.01C15.4229 11.155 14.7385 11.2809 14.355 11.3244C14.1842 11.3434 13.95 11.3389 13.7973 11.369L14.1378 11.6912C14.2509 11.806 14.3618 11.9309 14.4693 12.0535C14.6129 12.2174 14.9715 12.6678 15.0586 12.8885C14.1684 12.9097 13.7441 12.6934 13.0914 12.5619C13.3731 13.1985 13.6389 13.6176 13.7634 14.4292C14.0779 14.5061 14.4421 14.66 14.8041 14.7458C15.1865 14.8361 15.5767 14.9075 15.9874 14.9588C15.9206 14.5953 15.5383 13.7247 15.338 13.3601C15.2894 13.2709 15.0903 12.9576 15.1005 12.8919C15.7215 12.8863 16.5948 12.8239 17.2159 12.6734L17.3358 12.6321C17.1853 12.3802 16.8188 11.9967 16.5994 11.7737L15.7928 11.0112L16.8437 10.563L17.803 10.0034C17.5009 9.70124 15.7939 8.9989 15.7905 8.99555L16.2136 8.6154C16.5303 8.34226 17.1423 7.69678 17.3392 7.37571C16.8923 7.16612 15.5315 7.16278 15.0914 7.11818C15.0971 7.04461 15.2826 6.75252 15.3403 6.64773C15.5394 6.28541 15.9082 5.43368 15.984 5.05798C15.674 5.06356 15.1118 5.18842 14.8086 5.26311C14.4331 5.35453 13.9523 5.53178 13.7577 5.57749ZM4.92401 12.8885C4.86858 13.0268 4.73623 13.2274 4.65252 13.3869C4.56655 13.5519 4.48736 13.7168 4.41044 13.8863C4.2498 14.2419 4.13103 14.5964 4.00659 14.9655C4.39234 14.8796 4.79279 14.8395 5.18419 14.7469C5.56768 14.6555 5.88103 14.5296 6.22605 14.4303C6.22492 14.5797 6.17175 14.8016 6.15026 14.9632C6.0722 15.553 6.06881 16.0613 6.08578 16.6611C6.23057 16.6566 6.96474 16.1884 7.10161 16.0981L7.79166 15.5987C7.87198 15.5385 7.91157 15.4872 7.99528 15.4404C8.16044 16.1204 8.18419 16.3991 8.43646 17.0859C8.46926 17.175 8.49867 17.2497 8.53148 17.3367L8.6446 17.5775C8.78827 17.4905 9.22718 16.9108 9.37085 16.738C9.64799 16.4058 9.79166 16.0736 9.99075 15.7993L10.631 16.7425C10.7894 16.9476 11.1785 17.4359 11.3561 17.5875C11.5994 17.1572 11.9218 16.0145 11.9953 15.4337L11.6401 15.0836C11.5813 15.0245 11.5179 14.9777 11.4625 14.9153C11.2181 14.6466 10.8912 14.2475 10.7181 13.9264C10.6661 13.9989 10.6005 14.3289 10.5733 14.4281C10.5281 14.592 10.4704 14.7548 10.4116 14.9064C10.3516 15.0602 10.0926 15.6968 9.9998 15.7481C9.8946 15.6566 9.6627 15.0803 9.59483 14.9131C9.53374 14.7637 9.47718 14.5886 9.43306 14.4359C9.38781 14.2832 9.3584 14.0468 9.29505 13.9331C9.21021 14.0257 9.08917 14.2297 9.01225 14.3389C8.79732 14.6433 8.27356 15.2508 7.99189 15.4147C7.8765 14.2832 7.90591 14.5418 7.98284 13.4571C7.92401 13.485 7.93419 13.4816 7.87989 13.5184C7.38216 13.8595 6.87085 14.2241 6.2532 14.4136C6.2351 14.1383 6.5541 13.3032 6.69777 12.9911C6.75659 12.8629 6.87085 12.6778 6.90818 12.5585C6.22605 12.7213 5.72944 12.9086 4.92401 12.8885Z" fill="#85BC20"/>
<path d="M12.001 15.4371C12.096 15.4984 12.1322 15.5352 12.2272 15.611C12.5994 15.9075 13.5304 16.5563 13.9161 16.6701C13.9003 15.7793 13.9591 15.359 13.7623 14.4281C13.4365 14.2821 13.1311 14.1617 12.8279 13.9878C12.4648 13.7793 12.1989 13.5552 12.0225 13.4504C12.0191 14.1762 12.1865 14.3969 12.001 15.4371Z" fill="#85BC20"/>
<path d="M13.7579 5.57745C13.9525 5.53174 14.4333 5.35448 14.8077 5.26195C15.1109 5.18726 15.6731 5.0624 15.983 5.05682C15.9084 5.43141 15.5385 6.28425 15.3394 6.64657C15.2817 6.75136 15.0962 7.04345 15.0905 7.11703C15.5305 7.16162 16.8903 7.16496 17.3382 7.37455C17.1414 7.69562 16.5294 8.33999 16.2127 8.61424L15.7896 8.99439C15.7919 8.99774 17.4989 9.70008 17.802 10.0022L16.8428 10.5618L15.7919 11.01L16.5984 11.7725C16.8179 11.9955 17.1844 12.3801 17.3348 12.631L17.2149 12.6722C16.5928 12.8238 15.7206 12.8851 15.0995 12.8907C15.0882 12.9565 15.2873 13.2686 15.3371 13.3589C15.5373 13.7235 15.9208 14.5942 15.9864 14.9576C15.5758 14.9063 15.1855 14.835 14.8032 14.7447C14.4412 14.6599 14.0769 14.505 13.7624 14.4281C13.9593 15.3589 13.9005 15.7792 13.9163 16.67C13.5305 16.5563 12.5984 15.9086 12.2274 15.6109C12.1324 15.5351 12.0973 15.4994 12.0011 15.437L11.9966 15.4314C11.9219 16.0111 11.5995 17.1549 11.3575 17.5853C11.181 17.4336 10.7907 16.9453 10.6324 16.7402L9.99208 15.7971C9.79412 16.0713 9.64932 16.4035 9.37217 16.7358C9.22738 16.9097 8.78959 17.4883 8.64593 17.5752L8.53281 17.3344C8.5 17.2486 8.47059 17.1739 8.43778 17.0836C8.18552 16.3968 8.16063 16.1181 7.99661 15.4381C7.9129 15.4849 7.87443 15.5362 7.79299 15.5964L7.10294 16.0958C6.96493 16.185 6.23077 16.6544 6.0871 16.6588C6.07014 16.0591 6.0724 15.5518 6.15158 14.961C6.17308 14.8004 6.22624 14.5774 6.22738 14.4281C5.88235 14.5273 5.569 14.6533 5.18552 14.7447C4.79412 14.8383 4.3948 14.8773 4.00792 14.9632C4.13348 14.5942 4.25113 14.2408 4.41176 13.884C4.48756 13.7157 4.56674 13.5496 4.65385 13.3846C4.73643 13.2252 4.86878 13.0245 4.92534 12.8863L4.93778 12.8896C4.51923 12.874 2.97172 12.8205 2.66629 12.6276C2.75905 12.4492 3.23869 11.932 3.39253 11.7725C3.53054 11.6287 3.64367 11.5161 3.79864 11.3868L4.20362 11.02C4.20588 11.0122 4.21154 11.0111 4.21493 11.0055C4.07466 10.9175 3.819 10.8495 3.66063 10.7837C3.34389 10.6521 2.32805 10.1616 2.19118 9.99216C2.61878 9.71569 3.18552 9.41245 3.68326 9.20956C3.78054 9.17054 4.1595 9.03787 4.21606 8.99105C4.1414 8.91301 4.07579 8.86953 3.99887 8.80599C3.63009 8.50164 3.33824 8.16162 3.01244 7.81379C2.94344 7.74021 2.70475 7.45147 2.67195 7.37009C3.05317 7.18726 4.44118 7.13375 4.9129 7.11703C4.89932 7.04456 4.71267 6.72572 4.66063 6.63096C4.57692 6.47823 4.49434 6.30543 4.41855 6.13263C4.29186 5.84278 4.08371 5.37009 4.01923 5.05014C4.40724 5.08247 4.83371 5.175 5.20136 5.26195C5.65045 5.36786 5.93778 5.49941 6.2319 5.57299C6.19683 5.21401 6.11878 4.8818 6.09729 4.49495C6.07466 4.09807 6.07579 3.74579 6.08937 3.34556C6.319 3.35894 7.29977 4.04791 7.56561 4.23297C7.64706 4.28982 7.71041 4.33888 7.79072 4.40465C7.85407 4.45705 7.92308 4.52728 8 4.56407C8.08937 4.14155 8.39932 2.72572 8.64593 2.43029C8.78846 2.50944 9.24887 3.11368 9.37896 3.2809C9.59615 3.5585 9.92986 4.13152 9.99547 4.20844C9.99887 4.20621 11.0622 2.57187 11.3699 2.42583C11.8303 3.62985 11.707 3.37901 12 4.54958C12.0667 4.54958 12.3575 4.29317 12.44 4.22851C12.7398 3.99551 13.5905 3.43809 13.9129 3.3333C13.9299 3.96206 13.9344 5.02672 13.7579 5.57745ZM4.00679 14.9654C3.88688 15.2129 3.73756 15.942 3.67534 16.2597C3.58484 16.7201 3.52262 17.1828 3.47059 17.6599C3.64706 17.6644 4.61425 17.3199 4.82353 17.2397C5.04525 17.1549 5.26018 17.0735 5.46041 16.9832C5.63575 16.9041 5.92421 16.7469 6.08824 16.7012C6.11425 17.3411 6.31335 18.8305 6.52602 19.4058C6.74208 19.311 7.52602 18.651 7.75113 18.4548L8.64706 17.6176C8.83484 18.1014 9.64027 19.5853 9.99321 20C10.0373 19.9743 10.0045 20.0022 10.0464 19.9543C10.2783 19.6867 10.8982 18.5607 11.06 18.2497C11.1312 18.1115 11.293 17.7179 11.3654 17.6254L11.6063 17.8472C11.7014 17.9353 11.7511 17.9966 11.8484 18.1003C12.0441 18.3077 13.2523 19.3032 13.483 19.4102C13.6787 18.4916 13.8676 17.7101 13.9163 16.709C14.0351 16.7302 14.3937 16.9197 14.5328 16.9799C14.7421 17.0702 14.9491 17.156 15.1674 17.2385C15.5486 17.3835 16.129 17.5964 16.5328 17.6733C16.4853 17.0368 16.3348 16.2252 16.1787 15.602C16.1278 15.4013 16.0419 15.1594 16.0102 14.9743C16.448 14.9832 16.9084 15.0546 17.3733 15.0591C17.8609 15.0646 18.3156 15.0412 18.7975 15.0167C18.664 14.6042 18.0509 13.6298 17.7738 13.2207L17.379 12.6566C17.4276 12.6243 18.5464 12.3177 18.7342 12.2519C19.0498 12.1416 19.7455 11.9052 19.9921 11.7469L19.8925 11.6243C19.3473 11.1304 19.0385 10.8695 18.431 10.4113C18.3303 10.3355 17.8993 10.0624 17.8552 10.0022C17.9299 9.93531 18.0385 9.87622 18.1301 9.81156C18.2342 9.73798 18.3247 9.6789 18.4219 9.60755C18.6244 9.46039 18.7885 9.33442 18.9683 9.18837L19.7545 8.5139C19.8405 8.43921 19.9299 8.3634 20.0034 8.25192L18.75 7.76363C18.3654 7.63096 17.7896 7.43698 17.3733 7.37121C17.4219 7.27533 17.5023 7.18169 17.5667 7.09473C17.8676 6.69005 18.7138 5.33219 18.7964 4.99328C18.3213 4.96764 17.8541 4.94311 17.3744 4.95315C17.1505 4.9576 16.9208 4.96541 16.698 4.98102C16.4751 4.99551 16.2251 5.03564 16.0102 5.03787C16.2002 4.18057 16.4989 3.30432 16.5317 2.33776C16.0475 2.43921 15.0238 2.81379 14.5373 3.03007C14.4061 3.08804 14.0113 3.29205 13.9163 3.30209C13.8925 2.56073 13.7014 1.25526 13.4774 0.603089C13.302 0.69562 12.5464 1.2954 12.3778 1.44367C12.1957 1.6042 12.0396 1.74467 11.8676 1.89852C11.7443 2.00889 11.4627 2.32884 11.3665 2.3857C11.2862 2.27867 11.1346 1.8974 11.0622 1.75359C10.9548 1.53954 10.8507 1.34556 10.733 1.1449C10.6572 1.01558 10.1324 0.0969576 9.98869 0.00219727C9.90045 0.169421 9.74095 0.37455 9.63009 0.552922C9.36199 0.985475 8.77602 1.96429 8.65498 2.39462C8.56561 2.35337 8.04864 1.79818 7.89819 1.67778C7.41403 1.28759 7.11652 0.997738 6.53507 0.605319C6.40158 0.862844 6.1957 2.17054 6.14932 2.58191C6.1233 2.80822 6.11878 3.10142 6.07919 3.31323C5.84615 3.23074 5.27941 2.94088 4.83597 2.77812C4.42081 2.6265 3.90837 2.42695 3.47738 2.3411C3.47738 2.72461 3.60068 3.36898 3.67534 3.74579C3.75566 4.1527 3.96041 4.84501 3.99434 5.04345C3.53167 5.00554 3.11312 4.96652 2.63914 4.95537C2.15385 4.94423 1.69344 4.97433 1.2138 4.99662C1.25679 5.20175 1.74548 6.02784 1.86425 6.22293C2.11538 6.63876 2.36878 6.99216 2.63348 7.35225C2.6052 7.37232 1.4457 7.70008 1.28167 7.75694C0.86086 7.8974 0.384615 8.07578 0 8.25972C0.13914 8.46262 1.32692 9.42472 1.55882 9.58971C1.74208 9.72015 1.98982 9.86396 2.14819 9.99997L2.12104 10.0267C1.96493 10.1583 1.36878 10.5384 1.02941 10.8227C0.779412 11.0323 0.178733 11.5273 0.00226244 11.7424C0.423077 11.971 1.39593 12.3021 1.91629 12.4559C2.1233 12.5173 2.45475 12.5574 2.62104 12.6533C2.53281 12.8116 2.07353 13.4392 1.86538 13.7848C1.73869 13.9955 1.26131 14.816 1.20701 15.0156C2.1957 15.0501 3.02262 15.0836 4.00679 14.9654Z" fill="#00973F"/>
<path d="M9.29417 8.08588C9.27041 7.74808 9.21159 7.46492 9.21159 7.1026C9.21159 6.90639 9.22742 6.26982 9.31792 6.15277C9.68331 6.63214 9.84846 7.46157 10 7.97662C10.0487 7.83058 10.0758 7.63326 10.1177 7.47495C10.2037 7.15388 10.5204 6.30661 10.6878 6.15277C10.767 6.29992 10.7862 6.92423 10.7862 7.12712C10.7862 7.48275 10.7218 7.78041 10.698 8.1026C10.7874 7.96436 10.8847 7.81386 10.9774 7.68342C11.1822 7.39357 11.7263 6.74251 11.9887 6.61207C11.9265 7.34229 11.5419 7.93203 11.3179 8.45154C11.5091 8.35343 12.1754 7.72244 13.0476 7.48164C12.7444 8.17952 11.8564 8.88967 11.7851 8.99C11.9288 8.96102 12.0815 8.89636 12.2387 8.85288C12.6041 8.75031 13.4096 8.61096 13.7376 8.66559L13.3666 8.95879C12.8021 9.3657 12.5453 9.40472 12.0159 9.64998C12.155 9.67785 12.6516 9.67562 13.0826 9.75477C13.2908 9.79268 13.8179 9.91196 13.9672 10.0034C13.8507 10.1048 13.2783 10.2219 13.0679 10.2609C12.6833 10.3311 12.3813 10.3111 12.0136 10.3568C12.3428 10.4894 12.6369 10.6154 12.9356 10.7826C13.1381 10.8964 13.6528 11.2197 13.7342 11.3557C12.6301 11.3545 12.5521 11.1784 11.7976 11.0268L12.1607 11.3746C12.4706 11.6745 12.8507 12.1372 13.0487 12.5262C12.6245 12.4538 11.8711 11.9688 11.4921 11.689C11.4333 11.6455 11.3779 11.5898 11.3168 11.5574C11.3643 11.6812 11.4638 11.835 11.5283 11.9699C11.7331 12.3969 11.9276 12.9198 11.9876 13.3969C11.758 13.2821 11.4344 12.9086 11.2614 12.7013C11.1641 12.5842 11.0555 12.4527 10.9605 12.31C10.896 12.213 10.7455 12.0034 10.6969 11.9042C10.6991 12.0379 10.741 12.2185 10.7557 12.3635C10.7885 12.699 10.8021 13.6355 10.6844 13.8551C10.5657 13.7481 10.3439 13.2074 10.2715 13.0156C10.181 12.776 10.0193 12.1059 9.98082 12.0558C9.90503 12.6132 9.59055 13.4538 9.3134 13.8551L9.27494 13.7537C9.11543 12.9521 9.28964 12.0614 9.27267 11.971L9.25797 11.9331C9.09846 12.3356 8.37675 13.1461 8.00231 13.4081C8.02833 12.8796 8.45254 11.932 8.67652 11.5597C8.54869 11.6321 8.43557 11.7436 8.28964 11.8451C7.94575 12.0848 7.34168 12.4281 6.94349 12.5307C7.30887 11.7503 8.11317 11.1505 8.21046 11.0179C7.66634 11.1539 6.91521 11.4237 6.25344 11.3479C6.43783 11.1572 6.77946 10.9443 7.04303 10.7882C7.41294 10.5697 7.76475 10.4671 7.96498 10.3534C7.56453 10.3311 6.31227 10.242 6.02494 10.0023C6.47177 9.74585 7.47856 9.69569 7.96951 9.65667C7.93896 9.6366 7.34055 9.38911 7.03964 9.22077C6.80435 9.08922 6.39711 8.82389 6.25457 8.66113C6.5634 8.63772 7.01702 8.69569 7.3134 8.75254C7.66408 8.81943 8.08489 8.96882 8.20819 8.99C8.08036 8.86068 7.96385 8.77595 7.83828 8.65444C7.60525 8.42813 7.03172 7.75031 6.94801 7.48053C7.93218 7.8016 8.50684 8.36793 8.66068 8.43816C8.6177 8.31888 8.51023 8.13716 8.44462 8.00895C8.2953 7.71352 7.98987 6.86291 8.00684 6.60316L8.36996 6.92757C8.92426 7.45377 9.17086 7.96213 9.29417 8.08588ZM4.9367 12.8919L4.92426 12.8886C5.72969 12.9097 6.22629 12.7224 6.90729 12.5608C6.86996 12.6801 6.7557 12.8663 6.69688 12.9933C6.55435 13.3055 6.23421 14.1405 6.25231 14.4159C6.86996 14.2263 7.38127 13.8618 7.87901 13.5207C7.93331 13.4828 7.92313 13.4872 7.98195 13.4593C7.90503 14.5441 7.87561 14.2854 7.991 15.417C8.27267 15.2531 8.79643 14.6444 9.01136 14.3412C9.08828 14.2319 9.20932 14.0279 9.29417 13.9354C9.35751 14.0491 9.38693 14.2854 9.43218 14.4382C9.47742 14.5909 9.53398 14.7659 9.59394 14.9153C9.66294 15.0836 9.89371 15.66 9.99892 15.7503C10.0905 15.699 10.3507 15.0614 10.4107 14.9086C10.4695 14.757 10.5261 14.5931 10.5724 14.4304C10.5996 14.3311 10.6652 14.0011 10.7172 13.9287C10.8915 14.2498 11.2172 14.6489 11.4616 14.9175C11.5181 14.9789 11.5815 15.0268 11.6392 15.0859L11.9967 15.4337L12.0012 15.4393C12.1867 14.3991 12.0193 14.1784 12.0227 13.4527C12.198 13.5563 12.465 13.7804 12.8281 13.99C13.1324 14.165 13.4378 14.2843 13.7625 14.4304C13.6381 13.6188 13.3711 13.1996 13.0905 12.563C13.7433 12.6946 14.1675 12.9097 15.0577 12.8897C14.9706 12.6689 14.612 12.2185 14.4684 12.0547C14.362 11.932 14.25 11.8072 14.1369 11.6923L13.7964 11.3702C13.9491 11.3401 14.1833 11.3445 14.3541 11.3256C14.7376 11.2821 15.4209 11.1561 15.7455 11.0112C15.6777 10.8908 15.0521 10.5095 14.9503 10.4482C14.7274 10.3155 14.0939 10.0391 14.0476 9.99223C14.577 9.80271 15.241 9.42367 15.6822 9.07473C15.758 9.01453 15.7172 9.08142 15.7444 8.99558C15.1946 8.79937 14.4356 8.65555 13.7998 8.65221C13.8191 8.61988 14.8417 7.67339 15.0611 7.12155C14.698 7.12824 14.3451 7.16057 14.0023 7.22188C13.8405 7.25087 13.6878 7.28543 13.5317 7.32445C13.4129 7.35455 13.1969 7.43482 13.0928 7.44039C13.3168 7.03459 13.7127 6.12267 13.7568 5.57863C13.6234 5.64998 13.4378 5.71352 13.2885 5.78264C12.7919 6.01118 12.551 6.18398 12.1301 6.48275C12.0623 6.53069 12.0973 6.51286 12.0215 6.54296C12.077 5.41252 12.1335 5.8395 12.0102 4.59647C11.8541 4.66336 11.4175 5.13493 11.2896 5.28655C10.9967 5.63326 10.8779 5.86737 10.7003 6.09034C10.603 5.73136 10.5442 5.4259 10.4084 5.09814C10.3451 4.94541 10.2874 4.8016 10.2161 4.64886C10.1686 4.54741 10.077 4.31888 9.98421 4.24976C9.90842 4.44597 9.73082 4.73359 9.58942 5.1104L9.29417 6.07361C9.22629 6.00561 9.07584 5.75812 9.0091 5.66559C8.83376 5.42032 8.19349 4.67562 7.99326 4.59535C7.89937 5.3434 7.90729 5.79825 7.98421 6.55299L7.15955 6.01564C6.94688 5.89078 6.50118 5.6667 6.24213 5.59424C6.29869 6.03459 6.51928 6.62434 6.70027 7.03236C6.7557 7.15722 6.86543 7.33002 6.90503 7.44819C6.60186 7.38242 6.32584 7.27986 5.98534 7.22188C5.7229 7.17729 5.19914 7.10037 4.94009 7.13047C5.33037 7.89078 6.11656 8.52512 6.2048 8.65109C5.51815 8.689 4.86091 8.77707 4.26023 8.9978C4.30435 9.11709 4.89371 9.47718 5.05208 9.56637L5.96385 10.0168C5.5996 10.1305 4.54869 10.7013 4.28851 10.9699C4.24892 11.0101 4.28172 10.9621 4.25684 11.0134C4.69349 11.2341 5.69575 11.3323 6.20027 11.3657C6.16068 11.4437 5.92313 11.6232 5.84055 11.7113C5.73308 11.825 5.61996 11.9488 5.51475 12.0781C5.33942 12.2877 5.06113 12.6277 4.9367 12.8919Z" fill="#FFD900"/>
</g>
<defs>
<clipPath id="clip0_2016_2228">
<rect width="20" height="20" fill="white"/>
</clipPath>
</defs>
</svg>
