<svg width="16" height="16" viewBox="0 0 16 16" fill="none" xmlns="http://www.w3.org/2000/svg">
<path d="M13.5 5.16667V3.16667C13.5 2.79848 13.2015 2.5 12.8333 2.5H3.16667C2.79848 2.5 2.5 2.79848 2.5 3.16667V5.16667M13.5 5.16667V12.8333C13.5 13.2015 13.2015 13.5 12.8333 13.5H3.16667C2.79848 13.5 2.5 13.2015 2.5 12.8333V5.16667M13.5 5.16667H2.5M5.33333 8V7.99333M8 8V7.99333M5.33333 10.6667V10.66M8 10.6667V10.66M10.6667 8V7.99333M5.5 8C5.5 8.09205 5.42538 8.16667 5.33333 8.16667C5.24129 8.16667 5.16667 8.09205 5.16667 8C5.16667 7.90795 5.24129 7.83333 5.33333 7.83333C5.42538 7.83333 5.5 7.90795 5.5 8ZM8.16667 8C8.16667 8.09205 8.09205 8.16667 8 8.16667C7.90795 8.16667 7.83333 8.09205 7.83333 8C7.83333 7.90795 7.90795 7.83333 8 7.83333C8.09205 7.83333 8.16667 7.90795 8.16667 8ZM5.5 10.6667C5.5 10.7587 5.42538 10.8333 5.33333 10.8333C5.24129 10.8333 5.16667 10.7587 5.16667 10.6667C5.16667 10.5746 5.24129 10.5 5.33333 10.5C5.42538 10.5 5.5 10.5746 5.5 10.6667ZM8.16667 10.6667C8.16667 10.7587 8.09205 10.8333 8 10.8333C7.90795 10.8333 7.83333 10.7587 7.83333 10.6667C7.83333 10.5746 7.90795 10.5 8 10.5C8.09205 10.5 8.16667 10.5746 8.16667 10.6667ZM10.8333 8C10.8333 8.09205 10.7587 8.16667 10.6667 8.16667C10.5746 8.16667 10.5 8.09205 10.5 8C10.5 7.90795 10.5746 7.83333 10.6667 7.83333C10.7587 7.83333 10.8333 7.90795 10.8333 8Z" stroke="#344054" stroke-width="1.25" stroke-linecap="round"/>
</svg>
