<svg width="88" height="89" viewBox="0 0 88 89" fill="none" xmlns="http://www.w3.org/2000/svg">
<path fill-rule="evenodd" clip-rule="evenodd" d="M11 14.25C11 12.7312 12.2312 11.5 13.75 11.5H52.25C53.7688 11.5 55 12.7312 55 14.25V27.0833H74.25C75.7688 27.0833 77 28.3146 77 29.8333V68.3333H81.5834C83.1021 68.3333 84.3334 69.5646 84.3334 71.0833C84.3334 72.6021 83.1021 73.8333 81.5834 73.8333H6.41669C4.8979 73.8333 3.66669 72.6021 3.66669 71.0833C3.66669 69.5646 4.8979 68.3333 6.41669 68.3333H11V14.25ZM55 68.3333H71.5V32.5833H55V68.3333ZM25.6667 32.5833C25.6667 31.0646 26.8979 29.8333 28.4167 29.8333H37.5834C39.1021 29.8333 40.3334 31.0646 40.3334 32.5833C40.3334 34.1021 39.1021 35.3333 37.5834 35.3333H28.4167C26.8979 35.3333 25.6667 34.1021 25.6667 32.5833ZM25.6667 47.25C25.6667 45.7312 26.8979 44.5 28.4167 44.5H37.5834C39.1021 44.5 40.3334 45.7312 40.3334 47.25C40.3334 48.7688 39.1021 50 37.5834 50H28.4167C26.8979 50 25.6667 48.7688 25.6667 47.25Z" fill="#2E90FA"/>
</svg>
