<?xml version="1.0" encoding="UTF-8"?>
<svg id="Layer_1" xmlns="http://www.w3.org/2000/svg" version="1.1" viewBox="0 0 24 24">
  <!-- Generator: Adobe Illustrator 29.1.0, SVG Export Plug-In . SVG Version: 2.1.0 Build 142)  -->
  <defs>
    <style>
      .st0 {
        fill: red;
      }
    </style>
  </defs>
  <path class="st0" d="M5.8,20.3l-1.8-12.3h16l-1.8,12.3c-.1,1-1,1.7-2,1.7H7.7c-1,0-1.8-.7-2-1.7ZM21,4h-5v-1c0-.6-.4-1-1-1h-6c-.6,0-1,.4-1,1v1H3c-.6,0-1,.4-1,1s.4,1,1,1h18c.6,0,1-.4,1-1s-.4-1-1-1Z"/>
</svg>