<svg width="88" height="88" viewBox="0 0 88 88" fill="none" xmlns="http://www.w3.org/2000/svg">
<path fill-rule="evenodd" clip-rule="evenodd" d="M44 7.33334C44.7963 7.33334 45.5536 7.67855 46.0759 8.27968L54.0461 17.4529L66.0482 15.549C66.8347 15.4242 67.6366 15.6465 68.2467 16.1584C68.8567 16.6703 69.2149 17.4215 69.2286 18.2177L69.4378 30.368L79.8556 36.6243C80.5383 37.0343 81.0098 37.7201 81.1481 38.5043C81.2864 39.2886 81.0779 40.0942 80.5766 40.713L72.9268 50.1551L76.8859 61.6442C77.1453 62.3971 77.0656 63.2255 76.6675 63.9151C76.2693 64.6048 75.5917 65.088 74.81 65.2397L62.8806 67.5556L58.5284 78.9016C58.2432 79.6451 57.6497 80.2285 56.9014 80.5008C56.1531 80.7732 55.3234 80.7078 54.627 80.3216L44 74.4275L33.3729 80.3216C32.6765 80.7078 31.8469 80.7732 31.0986 80.5008C30.3502 80.2285 29.7567 79.6451 29.4715 78.9016L25.1193 67.5556L13.19 65.2397C12.4082 65.088 11.7306 64.6048 11.3325 63.9151C10.9343 63.2255 10.8546 62.3971 11.1141 61.6442L15.0732 50.1551L7.42334 40.713C6.92204 40.0942 6.71357 39.2886 6.85186 38.5043C6.99014 37.7201 7.46159 37.0343 8.14429 36.6243L18.5622 30.368L18.7713 18.2177C18.785 17.4215 19.1432 16.6703 19.7533 16.1584C20.3633 15.6465 21.1653 15.4242 21.9518 15.549L33.9538 17.4529L41.9241 8.27968C42.4464 7.67855 43.2036 7.33334 44 7.33334ZM55.1112 41.3612C56.1852 40.2873 56.1852 38.5461 55.1112 37.4721C54.0373 36.3982 52.2961 36.3982 51.2221 37.4721L40.3333 48.3609L36.7778 44.8055C35.7039 43.7315 33.9627 43.7315 32.8888 44.8055C31.8148 45.8794 31.8148 47.6206 32.8888 48.6946L38.3888 54.1946C38.9045 54.7103 39.604 55 40.3333 55C41.0627 55 41.7621 54.7103 42.2779 54.1946L55.1112 41.3612Z" fill="#2E90FA"/>
</svg>
