<svg width="20" height="20" viewBox="0 0 20 20" fill="none" xmlns="http://www.w3.org/2000/svg">
<path d="M10.625 6.875L10.0947 6.34467C9.95402 6.48532 9.875 6.67609 9.875 6.875H10.625ZM10.625 9.375H9.875C9.875 9.78921 10.2108 10.125 10.625 10.125V9.375ZM13.125 9.375V10.125C13.3239 10.125 13.5147 10.046 13.6553 9.90533L13.125 9.375ZM15.625 1.875L16.1553 1.34467C15.8624 1.05178 15.3876 1.05178 15.0947 1.34467L15.625 1.875ZM18.125 4.375L18.6553 4.90533C18.9482 4.61244 18.9482 4.13756 18.6553 3.84467L18.125 4.375ZM16.875 16.875V17.625C17.2892 17.625 17.625 17.2892 17.625 16.875H16.875ZM3.125 16.875H2.375C2.375 17.2892 2.71079 17.625 3.125 17.625V16.875ZM3.125 3.125V2.375C2.71079 2.375 2.375 2.71079 2.375 3.125H3.125ZM9.375 3.875C9.78921 3.875 10.125 3.53921 10.125 3.125C10.125 2.71079 9.78921 2.375 9.375 2.375V3.875ZM17.625 10.625C17.625 10.2108 17.2892 9.875 16.875 9.875C16.4608 9.875 16.125 10.2108 16.125 10.625H17.625ZM9.875 6.875V9.375H11.375V6.875H9.875ZM10.625 10.125H13.125V8.625H10.625V10.125ZM11.1553 7.40533L16.1553 2.40533L15.0947 1.34467L10.0947 6.34467L11.1553 7.40533ZM15.0947 2.40533L17.5947 4.90533L18.6553 3.84467L16.1553 1.34467L15.0947 2.40533ZM17.5947 3.84467L12.5947 8.84467L13.6553 9.90533L18.6553 4.90533L17.5947 3.84467ZM16.875 16.125H3.125V17.625H16.875V16.125ZM3.875 16.875V3.125H2.375V16.875H3.875ZM3.125 3.875H9.375V2.375H3.125V3.875ZM16.125 10.625V16.875H17.625V10.625H16.125Z" fill="#2970FF"/>
</svg>
