<svg width="20" height="20" viewBox="0 0 20 20" fill="none" xmlns="http://www.w3.org/2000/svg">
<path d="M8.12496 7.70832C8.12496 7.01797 8.6846 6.45832 9.37496 6.45832H10.3822C11.2066 6.45832 11.875 7.12666 11.875 7.95109C11.875 8.4502 11.6255 8.91629 11.2102 9.19314L10.7421 9.50521C10.2785 9.81432 9.99996 10.3347 9.99996 10.892V11.0417M9.99996 13.3333V13.325M17.7083 9.99999C17.7083 14.2572 14.2572 17.7083 9.99996 17.7083C5.74276 17.7083 2.29163 14.2572 2.29163 9.99999C2.29163 5.74279 5.74276 2.29166 9.99996 2.29166C14.2572 2.29166 17.7083 5.74279 17.7083 9.99999ZM10.2083 13.3333C10.2083 13.4484 10.115 13.5417 9.99996 13.5417C9.8849 13.5417 9.79163 13.4484 9.79163 13.3333C9.79163 13.2183 9.8849 13.125 9.99996 13.125C10.115 13.125 10.2083 13.2183 10.2083 13.3333Z" stroke="#101828" stroke-width="1.5" stroke-linecap="round" stroke-linejoin="round"/>
</svg>
