<svg width="20" height="20" viewBox="0 0 20 20" fill="none" xmlns="http://www.w3.org/2000/svg">
<path d="M8.12508 7.70835C8.12508 7.018 8.68473 6.45835 9.37508 6.45835H10.3823C11.2067 6.45835 11.8751 7.12669 11.8751 7.95112C11.8751 8.45023 11.6256 8.91632 11.2104 9.19317L10.7422 9.50524C10.2786 9.81435 10.0001 10.3347 10.0001 10.892V11.0417M10.0001 13.3334V13.325M17.7084 10C17.7084 14.2572 14.2573 17.7084 10.0001 17.7084C5.74289 17.7084 2.29175 14.2572 2.29175 10C2.29175 5.74283 5.74289 2.29169 10.0001 2.29169C14.2573 2.29169 17.7084 5.74283 17.7084 10ZM10.2084 13.3334C10.2084 13.4484 10.1151 13.5417 10.0001 13.5417C9.88502 13.5417 9.79175 13.4484 9.79175 13.3334C9.79175 13.2183 9.88502 13.125 10.0001 13.125C10.1151 13.125 10.2084 13.2183 10.2084 13.3334Z" stroke="#98A2B3" stroke-width="1.5" stroke-linecap="round" stroke-linejoin="round"/>
</svg>
