<?xml version="1.0" encoding="UTF-8"?>
<svg id="a" data-name="Layer 1" xmlns="http://www.w3.org/2000/svg" xmlns:xlink="http://www.w3.org/1999/xlink" viewBox="0 0 44.5 79.2">
  <defs>
    <linearGradient id="b" x1="-847.3" y1="711.6" x2="-846.4" y2="710.5" gradientTransform="translate(28057.2 -23495.5) scale(33.1)" gradientUnits="userSpaceOnUse">
      <stop offset="0" stop-color="#3aa6de"/>
      <stop offset="1" stop-color="#0e4e8f"/>
    </linearGradient>
    <linearGradient id="c" x1="-853.1" y1="702" x2="-852.6" y2="701.4" gradientTransform="translate(48176.4 -39589.6) scale(56.5)" xlink:href="#b"/>
  </defs>
  <path d="M14.3,14.6C3.4,22.3.9,35.9,6.9,53.9c4.4,13.2,11.8,24.1,12.1,24.5.3.5.9.8,1.5.8s.7-.1,1-.3c.8-.5,1-1.6.5-2.4-.3-.4-28.8-42.5-5.7-59,.1-.1.3-.2.5-.3-.5-.7-1.2-1.7-1.7-3.1-.3.2-.6.3-.8.5" style="fill: url(#b);"/>
  <path d="M27.6,19.7c-2.3-1.7-4.5-3.3-6.2-4.9,5.2-1.8,11-1.6,14.2.1,1.4.7,2,1.6,1.9,2.7,0,.8-.7,2.9-4.9,6-1.7-1.4-3.4-2.7-5.1-3.9M20.3.2c-.4,0-.8.2-1.2.5-3.3,3-4.8,5.9-4.6,8.8,0,1.5.6,2.8,1.3,4.1h0c.4.6,1.2,1.7,2.2,2.8,2,2.1,4.7,4.1,7.5,6.1,1.4,1.1,2.8,2.1,4.1,3.1-2.9,1.7-6.9,3.7-12.4,5.9-6.6,2.6-7.6,6.1-7.3,8.6.7,5.5,8.5,9.8,15.3,10.7,7.2.9,12.8-1.8,15.1-7.3,2.9-7.1.1-12.5-4.3-17-1.1,1.1-2.1,1.8-2.7,2.3,4,4,5.9,8.1,3.8,13.4-2.3,5.6-8.7,5.4-11.4,5.1-6-.8-11.9-4.5-12.3-7.7-.3-2.4,3.1-4.2,5.1-5,5.7-2.2,10.3-4.5,13.9-6.7h0s2.7-1.9,2.7-1.9l.9-.7c3.2-2.6,4.9-5.1,5-7.6.2-2.4-1.2-4.5-3.8-6-4.2-2.3-11.7-2.6-18.3.1-.6-.9-.9-1.8-1-2.7,0-1.8,1-3.8,3.5-6,.7-.7.8-1.8.1-2.5-.3-.4-.8-.6-1.3-.6h0Z" style="fill: url(#c);"/>
</svg>