<?xml version="1.0" encoding="UTF-8"?>
<svg
  id="a"
  data-name="Layer 1"
  xmlns="http://www.w3.org/2000/svg"
  viewBox="0 0 180.4 90.8"
>
  <path
    d="M0,30.8l3.3-6.9c3,1.9,7.6,3.2,11.7,3.2s6.2-1.2,6.2-3c0-5.5-20.3.1-20.3-13.2S6.7,0,16.5,0s9.7,1.1,12.9,2.9l-3.3,6.9c-3.3-1.9-6.6-2.5-9.7-2.5-4.4,0-6.3,1.4-6.3,3.1,0,5.7,20.3.2,20.3,13.3s-5.8,10.6-15.9,10.6S3.2,32.8.1,30.8"
  />
  <path
    d="M81.8,16.2v17.6h9.7V14.8c0-10.2-5.7-14.8-13.8-14.8s-9.4,2-12.1,5.5c-2.4-3.7-6.4-5.5-11.1-5.5s-8.1,1.5-10.6,4.3V.6h-9.3v33.2h9.7v-16.7c0-6,3.1-8.7,7.4-8.7s6.4,2.5,6.4,7.9v17.6h9.7v-16.7c0-6,3.1-8.7,7.4-8.7s6.4,2.5,6.4,7.9"
  />
  <path
    d="M157.5,0v8.9c-.8,0-1.4-.1-2.2-.1-5.4,0-8.9,2.9-8.9,9.3v15.8h-9.7V.2h9.3v4.7C148.3,1.7,152.3,0,157.5,0"
  />
  <path
    d="M180.4,31.8c-1.9,1.4-4.7,2-7.6,2-7.7,0-12.1-3.9-12.1-11.5V.2h9.4v5.2h8v7.2h-8v9.6c0,2.7,1.4,4.2,4,4.2s2.8-.4,3.9-1.2c0,0,2.5,6.6,2.5,6.6Z"
  />
  <path
    d="M131,.2v33.7h-9.3v-3.8c-2.4,2.9-6,4.3-10.5,4.3-9.5,0-16.8-6.7-16.8-17.2S101.7,0,111.1,0s7.6,1.3,10.1,4V.2s9.8,0,9.8,0ZM121.4,17.2c0-5.8-3.7-9.2-8.6-9.2s-8.6,3.5-8.6,9.2,3.7,9.2,8.6,9.2,8.6-3.5,8.6-9.2"
  />
  <rect x="81.8" y="44.2" width="9.9" height="8.6" />
  <path
    d="M37.3,61.7c0,10.6-7.4,17.4-17,17.4s-7.7-1.3-10.3-4.1v15.8H0v-46.1h9.5v3.9c2.5-3,6.2-4.4,10.7-4.4,9.6,0,17,6.8,17,17.5M27.3,61.7c0-5.9-3.8-9.4-8.7-9.4s-8.7,3.5-8.7,9.4,3.7,9.4,8.7,9.4,8.7-3.5,8.7-9.4"
  />
  <path
    d="M59.5,44.2c-10.9,0-18.8,7.3-18.8,17.5s8,17.5,18.8,17.5,18.8-7.3,18.8-17.5-7.9-17.5-18.8-17.5M68.2,65.8c-2.2,4.8-8,6.9-12.8,4.7-4.8-2.2-7-7.9-4.7-12.7,2.2-4.8,8-6.9,12.8-4.7,4.8,2.2,7,7.9,4.7,12.7"
  />
  <polygon points="81.8 55.4 91.9 55.3 91.9 79.2 81.8 79.2 81.8 55.4" />
  <path
    d="M131.7,59.5v19.7h-10.1v-18.2c0-5.6-2.6-8.1-7-8.1s-8.3,2.9-8.3,9.3v17.1h-10.1v-35h9.6v4.5c2.7-2.9,6.8-4.5,11.5-4.5,8.2,0,14.4,4.7,14.4,15.2"
  />
  <path
    d="M157.4,77.1c-2,1.5-5,2.1-8,2.1-8.1,0-12.8-4.1-12.8-12.2v-22.8h9.9v4.9h8.5v7.6h-8.5v10.2c0,2.9,1.5,4.5,4.2,4.5s2.9-.4,4.1-1.3c0,0,2.6,7,2.6,7Z"
  />
</svg>
