<svg width="20" height="20" viewBox="0 0 20 20" fill="none" xmlns="http://www.w3.org/2000/svg">
<path d="M16.875 16.875V17.625C17.2892 17.625 17.625 17.2892 17.625 16.875H16.875ZM3.125 16.875H2.375C2.375 17.2892 2.71079 17.625 3.125 17.625V16.875ZM3.125 3.12496V2.37496C2.71079 2.37496 2.375 2.71075 2.375 3.12496H3.125ZM9.375 3.87496C9.78921 3.87496 10.125 3.53917 10.125 3.12496C10.125 2.71075 9.78921 2.37496 9.375 2.37496V3.87496ZM17.625 10.625V9.87496H16.125V10.625H17.625ZM7.29167 10.2083L6.76134 9.67796C6.62068 9.81861 6.54167 10.0094 6.54167 10.2083H7.29167ZM7.29167 12.7083H6.54167C6.54167 13.1225 6.87745 13.4583 7.29167 13.4583V12.7083ZM9.79167 12.7083V13.4583C9.99058 13.4583 10.1813 13.3793 10.322 13.2386L9.79167 12.7083ZM15.2083 2.29163L15.7387 1.7613C15.4458 1.4684 14.9709 1.4684 14.678 1.7613L15.2083 2.29163ZM17.7083 4.79163L18.2387 5.32196C18.3793 5.1813 18.4583 4.99054 18.4583 4.79163C18.4583 4.59271 18.3793 4.40195 18.2387 4.2613L17.7083 4.79163ZM16.875 16.125H3.125V17.625H16.875V16.125ZM3.875 16.875V3.12496H2.375V16.875H3.875ZM3.125 3.87496H9.375V2.37496H3.125V3.87496ZM16.125 10.625V16.875H17.625V10.625H16.125ZM6.54167 10.2083V12.7083H8.04167V10.2083H6.54167ZM7.29167 13.4583H9.79167V11.9583H7.29167V13.4583ZM7.822 10.7386L15.7387 2.82196L14.678 1.7613L6.76134 9.67796L7.822 10.7386ZM14.678 2.82196L17.178 5.32196L18.2387 4.2613L15.7387 1.7613L14.678 2.82196ZM17.178 4.2613L9.26134 12.178L10.322 13.2386L18.2387 5.32196L17.178 4.2613Z" fill="#101828"/>
</svg>
