<svg width="16" height="16" viewBox="0 0 16 16" fill="none" xmlns="http://www.w3.org/2000/svg">
<path d="M1.66694 8.66671H5.66694M10.3336 8.66671H14.3336M8.00028 4.66671V14M8.00028 4.66671C8.92075 4.66671 9.66694 3.92051 9.66694 3.00004M8.00028 4.66671C7.0798 4.66671 6.33361 3.92052 6.33361 3.00004M2.66694 14L13.3336 14M2.66694 3.00005L6.33361 3.00004M6.33361 3.00004C6.33361 2.07957 7.0798 1.33337 8.00028 1.33337C8.92075 1.33337 9.66694 2.07957 9.66694 3.00004M9.66694 3.00004L13.3336 3.00004M5.92057 9.55761C5.65344 10.5804 4.74568 11.3334 3.66694 11.3334C2.58821 11.3334 1.68045 10.5804 1.41332 9.55761C1.39149 9.47404 1.38058 9.43225 1.37952 9.26529C1.37888 9.16294 1.41692 8.92695 1.44969 8.82999C1.50315 8.6718 1.56101 8.58252 1.67675 8.40396L3.66694 5.33337L5.65714 8.40396C5.77287 8.58252 5.83074 8.6718 5.8842 8.82999C5.91697 8.92695 5.95501 9.16294 5.95436 9.26529C5.95331 9.43225 5.94239 9.47404 5.92057 9.55761ZM14.5872 9.55761C14.3201 10.5804 13.4123 11.3334 12.3336 11.3334C11.2549 11.3334 10.3471 10.5804 10.08 9.55761C10.0582 9.47404 10.0472 9.43225 10.0462 9.26529C10.0455 9.16294 10.0836 8.92695 10.1164 8.82999C10.1698 8.6718 10.2277 8.58252 10.3434 8.40396L12.3336 5.33337L14.3238 8.40396C14.4395 8.58252 14.4974 8.6718 14.5509 8.82999C14.5836 8.92695 14.6217 9.16294 14.621 9.26529C14.62 9.43225 14.6091 9.47404 14.5872 9.55761Z" stroke="black" stroke-width="1.4" stroke-linecap="round" stroke-linejoin="round"/>
</svg>
