<svg width="20" height="20" viewBox="0 0 20 20" fill="none" xmlns="http://www.w3.org/2000/svg">
<path d="M0 6.19796H3.4375V12.9839H0V6.19796Z" fill="#F15523"/>
<path fill-rule="evenodd" clip-rule="evenodd" d="M13.3984 12.9059C15.2322 12.9059 16.7188 11.4217 16.7188 9.59091C16.7188 7.76011 15.2322 6.27596 13.3984 6.27596C11.5647 6.27596 10.0781 7.76011 10.0781 9.59091C10.0781 11.4217 11.5647 12.9059 13.3984 12.9059ZM13.3984 16.1818C17.0444 16.1818 20 13.231 20 9.59091C20 5.95085 17.0444 3 13.3984 3C9.7525 3 6.79688 5.95085 6.79688 9.59091C6.79688 13.231 9.7525 16.1818 13.3984 16.1818Z" fill="#F15523"/>
</svg>
