<svg width="25" height="24" viewBox="0 0 25 24" fill="none" xmlns="http://www.w3.org/2000/svg">
<rect x="0.75" width="24" height="24" rx="6" fill="#FFF1F3"/>
<g clip-path="url(#clip0_2016_7832)">
<path d="M17.4167 9.33333V11.3333M17.4167 11.3333V13.3333M17.4167 11.3333H15.4167M17.4167 11.3333H19.4167M13.75 8.33333C13.75 9.622 12.7053 10.6667 11.4167 10.6667C10.128 10.6667 9.08334 9.622 9.08334 8.33333C9.08334 7.04467 10.128 6 11.4167 6C12.7053 6 13.75 7.04467 13.75 8.33333ZM6.53104 16.6105C7.03928 14.349 8.88626 12.6667 11.4167 12.6667C13.9471 12.6667 15.7941 14.349 16.3023 16.6105C16.3884 16.9938 16.0772 17.3333 15.6844 17.3333H7.14895C6.75611 17.3333 6.4449 16.9938 6.53104 16.6105Z" stroke="#E31B54" stroke-width="1.5" stroke-linecap="round" stroke-linejoin="round"/>
</g>
<defs>
<clipPath id="clip0_2016_7832">
<rect width="16" height="16" fill="white" transform="translate(4.75 4)"/>
</clipPath>
</defs>
</svg>
