<svg width="20" height="20" viewBox="0 0 20 20" fill="none" xmlns="http://www.w3.org/2000/svg">
<path d="M14.1667 11.4583V3.125M14.1667 11.4583C15.663 11.4583 16.875 12.6703 16.875 14.1667C16.875 15.663 15.663 16.875 14.1667 16.875C12.6703 16.875 11.4583 15.663 11.4583 14.1667C11.4583 12.6703 12.6703 11.4583 14.1667 11.4583ZM5.83333 16.875V10.2083M5.83333 10.2083C4.33698 10.2083 3.125 8.99635 3.125 7.5C3.125 6.00365 4.33698 4.79167 5.83333 4.79167M5.83333 10.2083C7.32969 10.2083 8.54167 8.99635 8.54167 7.5C8.54167 6.00365 7.32969 4.79167 5.83333 4.79167M5.83333 4.79167V3.125" stroke="#101828" stroke-width="1.5" stroke-linecap="round" stroke-linejoin="round"/>
</svg>
