<svg width="20" height="20" viewBox="0 0 20 20" fill="none" xmlns="http://www.w3.org/2000/svg">
<g clip-path="url(#clip0_2001_4018)">
<path d="M12.5001 2.29163C14.1109 2.29163 15.4167 3.59746 15.4167 5.20829C15.4167 6.81912 14.1109 8.12496 12.5 8.12496M17.2917 16.8749H18.5417C19.002 16.8749 19.3813 16.4995 19.3093 16.045C18.9726 13.92 17.373 12.024 15.2084 11.2573M7.70838 8.12496C6.09755 8.12496 4.79172 6.81912 4.79172 5.20829C4.79172 3.59746 6.09755 2.29163 7.70838 2.29163C9.31921 2.29163 10.625 3.59746 10.625 5.20829C10.625 6.81912 9.31921 8.12496 7.70838 8.12496ZM0.897669 16.0187C1.35777 13.0577 4.2317 10.625 7.70838 10.625C11.1851 10.625 14.059 13.0577 14.5191 16.0187C14.5898 16.4734 14.2103 16.8489 13.75 16.8489H1.66672C1.20648 16.8489 0.827 16.4734 0.897669 16.0187Z" stroke="#101828" stroke-width="1.5" stroke-linecap="round" stroke-linejoin="round"/>
</g>
<defs>
<clipPath id="clip0_2001_4018">
<rect width="20" height="20" fill="white"/>
</clipPath>
</defs>
</svg>
