<svg width="16" height="16" viewBox="0 0 16 16" fill="none" xmlns="http://www.w3.org/2000/svg">
<g clip-path="url(#clip0_2001_4079)">
<path d="M2.66669 14.545C3.06841 14.6667 3.611 14.6667 4.53334 14.6667H11.4667C12.389 14.6667 12.9316 14.6667 13.3333 14.545M2.66669 14.545C2.58056 14.5189 2.5009 14.4872 2.42536 14.4487C2.04904 14.257 1.74308 13.951 1.55133 13.5747C1.33334 13.1469 1.33334 12.5868 1.33334 11.4667V4.53337C1.33334 3.41327 1.33334 2.85322 1.55133 2.42539C1.74308 2.04907 2.04904 1.74311 2.42536 1.55136C2.85319 1.33337 3.41324 1.33337 4.53334 1.33337H11.4667C12.5868 1.33337 13.1468 1.33337 13.5747 1.55136C13.951 1.74311 14.2569 2.04907 14.4487 2.42539C14.6667 2.85322 14.6667 3.41327 14.6667 4.53337V11.4667C14.6667 12.5868 14.6667 13.1469 14.4487 13.5747C14.2569 13.951 13.951 14.257 13.5747 14.4487C13.4991 14.4872 13.4195 14.5189 13.3333 14.545M2.66669 14.545C2.66691 14.0054 2.67015 13.7199 2.71792 13.4798C2.92833 12.422 3.75526 11.595 4.8131 11.3846C5.0707 11.3334 5.38047 11.3334 6.00001 11.3334H10C10.6196 11.3334 10.9293 11.3334 11.1869 11.3846C12.2448 11.595 13.0717 12.422 13.2821 13.4798C13.3299 13.7199 13.3331 14.0054 13.3333 14.545M10.6667 6.33337C10.6667 7.80613 9.47277 9.00004 8.00001 9.00004C6.52725 9.00004 5.33334 7.80613 5.33334 6.33337C5.33334 4.86061 6.52725 3.66671 8.00001 3.66671C9.47277 3.66671 10.6667 4.86061 10.6667 6.33337Z" stroke="black" stroke-linecap="round" stroke-linejoin="round"/>
</g>
<defs>
<clipPath id="clip0_2001_4079">
<rect width="16" height="16" fill="white"/>
</clipPath>
</defs>
</svg>
